<?xml version="1.0" encoding="UTF-8"?>
<svg xmlns="http://www.w3.org/2000/svg" style="display:none">
  <symbol id="search" viewBox="0 0 24 24">
    <circle cx="11" cy="11" r="7" fill="none" stroke="currentColor" stroke-width="2"/>
    <path d="M20 20l-3.5-3.5" fill="none" stroke="currentColor" stroke-width="2" stroke-linecap="round"/>
  </symbol>

  <symbol id="globe" viewBox="0 0 24 24">
    <circle cx="12" cy="12" r="10" fill="none" stroke="currentColor" stroke-width="2"/>
    <path d="M2 12h20" fill="none" stroke="currentColor" stroke-width="2"/>
    <path d="M12 2c3.5 3.2 3.5 16.8 0 20C8.5 18.8 8.5 5.2 12 2z" fill="none" stroke="currentColor" stroke-width="2" stroke-linejoin="round"/>
  </symbol>

  <symbol id="chevron-down" viewBox="0 0 24 24">
    <path d="M6 9l6 6 6-6" fill="none" stroke="currentColor" stroke-width="2" stroke-linecap="round" stroke-linejoin="round"/>
  </symbol>

  <symbol id="moon" viewBox="0 0 24 24">
    <path d="M21 14.2A8.5 8.5 0 0 1 9.8 3a7.5 7.5 0 1 0 11.2 11.2z" fill="none" stroke="currentColor" stroke-width="2" stroke-linejoin="round"/>
  </symbol>

  <symbol id="sun" viewBox="0 0 24 24">
    <circle cx="12" cy="12" r="4" fill="none" stroke="currentColor" stroke-width="2"/>
    <path d="M12 2v2M12 20v2M4.2 4.2l1.4 1.4M18.4 18.4l1.4 1.4M2 12h2M20 12h2M4.2 19.8l1.4-1.4M18.4 5.6l1.4-1.4"
          fill="none" stroke="currentColor" stroke-width="2" stroke-linecap="round"/>
  </symbol>

  <symbol id="user" viewBox="0 0 24 24">
    <path d="M20 21a8 8 0 0 0-16 0" fill="none" stroke="currentColor" stroke-width="2" stroke-linecap="round"/>
    <circle cx="12" cy="8" r="4" fill="none" stroke="currentColor" stroke-width="2"/>
  </symbol>

  <symbol id="login" viewBox="0 0 24 24">
    <path d="M10 17l5-5-5-5" fill="none" stroke="currentColor" stroke-width="2" stroke-linecap="round" stroke-linejoin="round"/>
    <path d="M15 12H3" fill="none" stroke="currentColor" stroke-width="2" stroke-linecap="round"/>
    <path d="M21 3h-8a2 2 0 0 0-2 2v3" fill="none" stroke="currentColor" stroke-width="2" stroke-linecap="round"/>
    <path d="M11 16v3a2 2 0 0 0 2 2h8" fill="none" stroke="currentColor" stroke-width="2" stroke-linecap="round"/>
  </symbol>

  <symbol id="logout" viewBox="0 0 24 24">
    <path d="M14 7l-5 5 5 5" fill="none" stroke="currentColor" stroke-width="2" stroke-linecap="round" stroke-linejoin="round"/>
    <path d="M9 12h12" fill="none" stroke="currentColor" stroke-width="2" stroke-linecap="round"/>
    <path d="M3 3h8a2 2 0 0 1 2 2v3" fill="none" stroke="currentColor" stroke-width="2" stroke-linecap="round"/>
    <path d="M13 16v3a2 2 0 0 1-2 2H3" fill="none" stroke="currentColor" stroke-width="2" stroke-linecap="round"/>
  </symbol>

  <symbol id="home" viewBox="0 0 24 24">
    <path d="M3 10.5l9-7 9 7" fill="none" stroke="currentColor" stroke-width="2" stroke-linecap="round" stroke-linejoin="round"/>
    <path d="M5 9.5V21h14V9.5" fill="none" stroke="currentColor" stroke-width="2" stroke-linecap="round" stroke-linejoin="round"/>
  </symbol>

  <symbol id="news" viewBox="0 0 24 24">
    <path d="M4 4h14v16H4z" fill="none" stroke="currentColor" stroke-width="2"/>
    <path d="M18 8h2a2 2 0 0 1 2 2v8a2 2 0 0 1-2 2h-2" fill="none" stroke="currentColor" stroke-width="2"/>
    <path d="M7 8h8M7 12h8M7 16h6" fill="none" stroke="currentColor" stroke-width="2" stroke-linecap="round"/>
  </symbol>

  <symbol id="facebook" viewBox="0 0 24 24">
    <path d="M18 2h-3a5 5 0 0 0-5 5v3H7v4h3v8h4v-8h3l1-4h-4V7a1 1 0 0 1 1-1h3z" fill="currentColor"/>
  </symbol>

  <symbol id="x" viewBox="0 0 24 24">
    <path d="M4 4l16 16M20 4L4 20" fill="none" stroke="currentColor" stroke-width="2" stroke-linecap="round"/>
  </symbol>

  <symbol id="youtube" viewBox="0 0 24 24">
    <path d="M21.8 8.4a3 3 0 0 0-2.1-2.1C17.9 6 12 6 12 6s-5.9 0-7.7.3A3 3 0 0 0 2.2 8.4 31 31 0 0 0 2 12a31 31 0 0 0 .2 3.6 3 3 0 0 0 2.1 2.1C6.1 18 12 18 12 18s5.9 0 7.7-.3a3 3 0 0 0 2.1-2.1A31 31 0 0 0 22 12a31 31 0 0 0-.2-3.6z" fill="none" stroke="currentColor" stroke-width="2" stroke-linejoin="round"/>
    <path d="M10 9.5l6 2.5-6 2.5z" fill="currentColor"/>
  </symbol>

  <symbol id="telegram" viewBox="0 0 24 24">
    <path d="M22 3L2 11l7 2 2 7 3-4 5 4 3-17z" fill="none" stroke="currentColor" stroke-width="2" stroke-linejoin="round"/>
    <path d="M9 13l10-8" fill="none" stroke="currentColor" stroke-width="2" stroke-linecap="round"/>
  </symbol>

  <symbol id="instagram" viewBox="0 0 24 24">
    <rect x="4" y="4" width="16" height="16" rx="4" ry="4" fill="none" stroke="currentColor" stroke-width="2"/>
    <circle cx="12" cy="12" r="3.5" fill="none" stroke="currentColor" stroke-width="2"/>
    <circle cx="17.5" cy="6.5" r="1" fill="currentColor"/>
  </symbol>

  <symbol id="whatsapp" viewBox="0 0 24 24">
    <path d="M20 11.5A8 8 0 0 1 7 18.7L4 20l1.3-3A8 8 0 1 1 20 11.5z" fill="none" stroke="currentColor" stroke-width="2" stroke-linejoin="round"/>
    <path d="M9.2 9.2c.4-1 .9-1.1 1.3-.2l.6 1.3c.2.4.1.7-.1 1l-.3.4c.6 1.1 1.6 2.1 2.7 2.7l.4-.3c.3-.2.6-.3 1-.1l1.3.6c.9.4.8.9-.2 1.3-1.2.5-3.1.2-5.3-2-2.2-2.2-2.5-4.1-2-5.3z" fill="currentColor"/>
  </symbol>


  <symbol id="check" viewBox="0 0 24 24">
    <path d="M20 6L9 17l-5-5" fill="none" stroke="currentColor" stroke-width="2" stroke-linecap="round" stroke-linejoin="round"/>
  </symbol>

  <symbol id="dot" viewBox="0 0 24 24">
    <circle cx="12" cy="12" r="3" fill="currentColor"/>
  </symbol>

  <symbol id="google" viewBox="0 0 24 24">
    <path fill="currentColor" d="M12 2a10 10 0 1 0 0 20c2.7 0 5.1-1 6.9-2.7 1.8-1.8 2.7-4.2 2.7-7 0-.7-.07-1.4-.2-2.1H12v4h6.6a5.9 5.9 0 0 1-2 3.1A6 6 0 1 1 18.2 8l2.8-2.8A9.9 9.9 0 0 0 12 2z"/>
  </symbol>

  <symbol id="github" viewBox="0 0 24 24">
    <path fill="currentColor" d="M12 2A10 10 0 0 0 2 12C2 16.42 4.87 20.17 8.84 21.5C9.34 21.59 9.5 21.27 9.5 21C9.5 20.77 9.5 20.14 9.5 19.31C6.73 19.91 6.14 18 6.14 18C5.68 16.81 5.03 16.5 5.03 16.5C4.12 15.88 5.1 15.89 5.1 15.89C6.1 15.96 6.63 16.93 6.63 16.93C7.52 18.45 8.97 18.01 9.54 17.76C9.63 17.11 9.89 16.67 10.17 16.42C7.95 16.17 5.62 15.31 5.62 11.5C5.62 10.39 6 9.5 6.65 8.79C6.55 8.54 6.2 7.5 6.75 6.15C6.75 6.15 7.59 5.88 9.5 7.17C10.29 6.95 11.15 6.84 12 6.84C12.85 6.84 13.71 6.95 14.5 7.17C16.41 5.88 17.25 6.15 17.25 6.15C17.8 7.5 17.45 8.54 17.35 8.79C18 9.5 18.38 10.39 18.38 11.5C18.38 15.32 16.04 16.16 13.81 16.41C14.17 16.72 14.5 17.33 14.5 18.26C14.5 19.6 14.5 20.68 14.5 21C14.5 21.27 14.66 21.59 15.17 21.5C19.14 20.17 22 16.42 22 12A10 10 0 0 0 12 2Z"/>
  </symbol>

  <symbol id="eye" viewBox="0 0 24 24">
    <path fill="currentColor" d="M12 5c-5.5 0-9.8 4.1-11 7 1.2 2.9 5.5 7 11 7s9.8-4.1 11-7c-1.2-2.9-5.5-7-11-7zm0 12a5 5 0 1 1 0-10 5 5 0 0 1 0 10z"/>
    <path fill="currentColor" d="M12 10a2 2 0 1 0 0 4 2 2 0 0 0 0-4z"/>
  </symbol>

  <symbol id="eye-off" viewBox="0 0 24 24">
    <path fill="currentColor" d="M2.1 3.5 3.5 2.1l18.4 18.4-1.4 1.4-3-3A11.9 11.9 0 0 1 12 19c-5.5 0-9.8-4.1-11-7 .7-1.7 2.3-3.7 4.6-5.2l-3.5-3.3zM7.2 8.5c-1.9 1.1-3.2 2.7-3.8 3.5 1.2 2.2 4.7 5.8 8.6 5.8 1.2 0 2.3-.2 3.3-.6l-1.8-1.8a3.5 3.5 0 0 1-4.7-4.7L7.2 8.5zm8.1 8.1 1.6 1.6c2-1.2 3.4-2.9 4.1-4.2-1.2-2.2-4.7-5.8-8.6-5.8-.9 0-1.7.1-2.5.3l1.4 1.4a3.5 3.5 0 0 1 4.4 4.4l-.4-.4c0 .1 0 .2 0 .3a2 2 0 0 1-2.3 2.0l.9.9c.5-.1 1-.3 1.4-.5z"/>
  </symbol>

  <symbol id="alert" viewBox="0 0 24 24">
    <path fill="currentColor" d="M12 2 1 21h22L12 2zm0 14a1 1 0 1 1 0 2 1 1 0 0 1 0-2zm-1-7h2v6h-2V9z"/>
  </symbol>

  <symbol id="mail" viewBox="0 0 24 24">
    <path fill="currentColor" d="M20 4H4c-1.1 0-2 .9-2 2v12c0 1.1.9 2 2 2h16c1.1 0 2-.9 2-2V6c0-1.1-.9-2-2-2zm0 4-8 5L4 8V6l8 5 8-5v2z"/>
  </symbol>
  <symbol id="phone" viewBox="0 0 24 24">
    <path fill="currentColor" d="M6.62 10.79a15.05 15.05 0 0 0 6.59 6.59l2.2-2.2a1 1 0 0 1 1.01-.24c1.12.37 2.33.57 3.58.57a1 1 0 0 1 1 1V20a1 1 0 0 1-1 1C10.07 21 3 13.93 3 5a1 1 0 0 1 1-1h3.5a1 1 0 0 1 1 1c0 1.25.2 2.46.57 3.58a1 1 0 0 1-.24 1.01l-2.21 2.2z"/>
  </symbol>
  <symbol id="settings" viewBox="0 0 24 24">
    <path fill="currentColor" d="M19.14 12.94a7.49 7.49 0 0 0 .05-.94 7.49 7.49 0 0 0-.05-.94l2.03-1.58a.5.5 0 0 0 .12-.64l-1.92-3.32a.5.5 0 0 0-.6-.22l-2.39.96a7.28 7.28 0 0 0-1.63-.94l-.36-2.54A.5.5 0 0 0 13.9 0h-3.8a.5.5 0 0 0-.49.42l-.36 2.54c-.58.23-1.12.54-1.63.94l-2.39-.96a.5.5 0 0 0-.6.22L2.71 6.48a.5.5 0 0 0 .12.64l2.03 1.58c-.03.31-.05.63-.05.94s.02.63.05.94L2.83 14.52a.5.5 0 0 0-.12.64l1.92 3.32a.5.5 0 0 0 .6.22l2.39-.96c.51.4 1.05.71 1.63.94l.36 2.54a.5.5 0 0 0 .49.42h3.8a.5.5 0 0 0 .49-.42l.36-2.54c.58-.23 1.12-.54 1.63-.94l2.39.96a.5.5 0 0 0 .6-.22l1.92-3.32a.5.5 0 0 0-.12-.64l-2.03-1.58zM12 15.5A3.5 3.5 0 1 1 12 8a3.5 3.5 0 0 1 0 7.5z"/>
  </symbol>
  <symbol id="tag" viewBox="0 0 24 24">
    <path fill="currentColor" d="M20.59 13.41 11 3.83A2 2 0 0 0 9.59 3H4a1 1 0 0 0-1 1v5.59A2 2 0 0 0 3.83 11l9.59 9.59a2 2 0 0 0 2.83 0l4.34-4.34a2 2 0 0 0 0-2.84zM6.5 8A1.5 1.5 0 1 1 8 6.5 1.5 1.5 0 0 1 6.5 8z"/>
  </symbol>
<symbol id="tag" viewBox="0 0 24 24">
    <path fill="currentColor" d="M20.59 13.41 11 3.83A2 2 0 0 0 9.59 3H4a1 1 0 0 0-1 1v5.59A2 2 0 0 0 3.83 11l9.59 9.59a2 2 0 0 0 2.83 0l4.34-4.34a2 2 0 0 0 0-2.84zM6.5 8A1.5 1.5 0 1 1 8 6.5 1.5 1.5 0 0 1 6.5 8z"/>
  </symbol>
  <symbol id="arrow-up" viewBox="0 0 24 24">
    <path fill="currentColor" d="M12 4l-7 7h4v9h6v-9h4z"/>
  </symbol>
  <symbol id="android" viewBox="0 0 24 24">
    <path fill="currentColor" d="M7 9h10v9a2 2 0 0 1-2 2h-1v-3h-4v3H9a2 2 0 0 1-2-2V9zm12-2H5c0-2.2 1.2-4.1 3-5.1L7.2 0.9l1-.5L9.2 2.3c.9-.3 1.8-.3 2.8-.3s1.9 0 2.8.3l1-1.9 1 .5-0.8 1.0c1.8 1 3 2.9 3 5.1zM8.5 5.5a.75.75 0 1 0 0 1.5.75.75 0 0 0 0-1.5zm7 0a.75.75 0 1 0 0 1.5.75.75 0 0 0 0-1.5z"/>
  </symbol>
  <symbol id="apple" viewBox="0 0 24 24">
    <path fill="currentColor" d="M16.3 13.2c0-2.3 1.9-3.4 2-3.4-1.1-1.6-2.8-1.8-3.4-1.8-1.4-.1-2.7.8-3.4.8-.7 0-1.7-.8-2.9-.8-1.5 0-2.8.9-3.6 2.2-1.5 2.6-.4 6.4 1.1 8.5.7 1 1.5 2.2 2.6 2.1 1 0 1.4-.7 2.7-.7 1.3 0 1.6.7 2.7.7 1.1 0 1.9-1 2.6-2.1.8-1.2 1.1-2.3 1.1-2.3-.0 0-2.5-1-2.5-3.2zM14.4 5.6c.6-.7 1-1.7.9-2.6-.9.0-2 .6-2.7 1.3-.6.7-1.1 1.6-1 2.6 1 .1 2-.5 2.8-1.3z"/>
  </symbol>

  <symbol id="lock" viewBox="0 0 24 24">
    <path d="M17 10h-1V7a4 4 0 00-8 0v3H7a2 2 0 00-2 2v8a2 2 0 002 2h10a2 2 0 002-2v-8a2 2 0 00-2-2zm-7-3a2 2 0 114 0v3h-4V7zm7 13H7v-8h10v8z"/>
  </symbol>

  <symbol id="spinner" viewBox="0 0 24 24">
    <path d="M12 2a10 10 0 00-10 10h3a7 7 0 017-7V2z"/>
    <path d="M22 12a10 10 0 01-10 10v-3a7 7 0 007-7h3z" opacity="0.35"/>
  </symbol>

  <symbol id="calendar" viewBox="0 0 24 24">
    <path d="M7 2v2H5a2 2 0 00-2 2v14a2 2 0 002 2h14a2 2 0 002-2V6a2 2 0 00-2-2h-2V2h-2v2H9V2H7zm12 6H5V6h14v2zm0 12H5V10h14v10z"/>
  </symbol>

  <symbol id="key" viewBox="0 0 24 24">
    <path d="M14 3a7 7 0 00-6.93 6H3v4h3v3h3v3h4v-5.07A7 7 0 1014 3zm0 2a5 5 0 110 10 5 5 0 010-10z"/>
    <circle cx="14" cy="8" r="1.5"/>
  </symbol>

  <!-- Added in v9: richer icon set to avoid dot placeholders -->
  <symbol id="menu" viewBox="0 0 24 24">
    <path d="M4 6h16M4 12h16M4 18h16" stroke="currentColor" stroke-width="2" stroke-linecap="round" fill="none"/>
  </symbol>
  <symbol id="bell" viewBox="0 0 24 24">
    <path d="M18 8a6 6 0 10-12 0c0 7-3 7-3 7h18s-3 0-3-7" stroke="currentColor" stroke-width="2" stroke-linecap="round" stroke-linejoin="round" fill="none"/>
    <path d="M9.5 19a2.5 2.5 0 005 0" stroke="currentColor" stroke-width="2" stroke-linecap="round" fill="none"/>
  </symbol>
  <symbol id="map" viewBox="0 0 24 24">
    <path d="M9 18l-6 3V6l6-3 6 3 6-3v15l-6 3-6-3z" stroke="currentColor" stroke-width="2" stroke-linejoin="round" fill="none"/>
    <path d="M9 3v15M15 6v15" stroke="currentColor" stroke-width="2" stroke-linecap="round" fill="none"/>
  </symbol>
  <symbol id="download" viewBox="0 0 24 24">
    <path d="M12 3v10" stroke="currentColor" stroke-width="2" stroke-linecap="round" fill="none"/>
    <path d="M8 10l4 4 4-4" stroke="currentColor" stroke-width="2" stroke-linecap="round" stroke-linejoin="round" fill="none"/>
    <path d="M4 17v4h16v-4" stroke="currentColor" stroke-width="2" stroke-linecap="round" stroke-linejoin="round" fill="none"/>
  </symbol>
  <symbol id="chart" viewBox="0 0 24 24">
    <path d="M4 20h16" stroke="currentColor" stroke-width="2" stroke-linecap="round" fill="none"/>
    <path d="M7 20V11M12 20V7M17 20V14" stroke="currentColor" stroke-width="2" stroke-linecap="round" fill="none"/>
  </symbol>
  <symbol id="poll" viewBox="0 0 24 24">
    <path d="M4 20h16" stroke="currentColor" stroke-width="2" stroke-linecap="round" fill="none"/>
    <path d="M7 20V12M12 20V9M17 20V6" stroke="currentColor" stroke-width="2" stroke-linecap="round" fill="none"/>
    <path d="M7 8l3-3 3 2 4-4" stroke="currentColor" stroke-width="2" stroke-linecap="round" stroke-linejoin="round" fill="none"/>
  </symbol>
  <symbol id="question" viewBox="0 0 24 24">
    <path d="M12 17h.01" stroke="currentColor" stroke-width="2.5" stroke-linecap="round" fill="none"/>
    <path d="M9.1 9a3 3 0 015.8 1c0 2-3 2-3 4" stroke="currentColor" stroke-width="2" stroke-linecap="round" stroke-linejoin="round" fill="none"/>
    <circle cx="12" cy="12" r="9" stroke="currentColor" stroke-width="2" fill="none"/>
  </symbol>
  <symbol id="rss" viewBox="0 0 24 24">
    <path d="M4 4c9.4 0 16 6.6 16 16" stroke="currentColor" stroke-width="2" stroke-linecap="round" fill="none"/>
    <path d="M4 11c5.5 0 9 3.5 9 9" stroke="currentColor" stroke-width="2" stroke-linecap="round" fill="none"/>
    <circle cx="6" cy="18" r="2" fill="currentColor"/>
  </symbol>
  <symbol id="category" viewBox="0 0 24 24">
    <path d="M4 7a2 2 0 012-2h5l2 2h7a2 2 0 012 2v10a2 2 0 01-2 2H6a2 2 0 01-2-2z" stroke="currentColor" stroke-width="2" stroke-linejoin="round" fill="none"/>
  </symbol>
  <symbol id="image" viewBox="0 0 24 24">
    <rect x="4" y="5" width="16" height="14" rx="2" ry="2" stroke="currentColor" stroke-width="2" fill="none"/>
    <path d="M8 13l2.5-2.5 3 3 2-2 3.5 3.5" stroke="currentColor" stroke-width="2" stroke-linecap="round" stroke-linejoin="round" fill="none"/>
    <circle cx="9" cy="9" r="1.5" fill="currentColor"/>
  </symbol>
  <symbol id="video" viewBox="0 0 24 24">
    <rect x="4" y="7" width="12" height="10" rx="2" stroke="currentColor" stroke-width="2" fill="none"/>
    <path d="M16 10l4-2v8l-4-2z" fill="none" stroke="currentColor" stroke-width="2" stroke-linejoin="round"/>
  </symbol>
  <symbol id="comment" viewBox="0 0 24 24">
    <path d="M21 12a8 8 0 01-8 8H7l-4 2 1.5-4.5A8 8 0 114 12a8 8 0 0117 0z" stroke="currentColor" stroke-width="2" stroke-linejoin="round" fill="none"/>
  </symbol>
  <symbol id="users" viewBox="0 0 24 24">
    <path d="M16 11a4 4 0 10-8 0 4 4 0 008 0z" stroke="currentColor" stroke-width="2" fill="none"/>
    <path d="M4 21a8 8 0 0116 0" stroke="currentColor" stroke-width="2" stroke-linecap="round" fill="none"/>
  </symbol>
  <symbol id="team" viewBox="0 0 24 24">
    <path d="M9 11a3 3 0 10-6 0 3 3 0 006 0z" stroke="currentColor" stroke-width="2" fill="none"/>
    <path d="M21 11a3 3 0 10-6 0 3 3 0 006 0z" stroke="currentColor" stroke-width="2" fill="none"/>
    <path d="M12 12a4 4 0 10-8 0 4 4 0 008 0z" stroke="currentColor" stroke-width="2" fill="none"/>
    <path d="M2 21a6 6 0 0110-3M22 21a6 6 0 00-10-3" stroke="currentColor" stroke-width="2" stroke-linecap="round" fill="none"/>
  </symbol>
  <symbol id="pen" viewBox="0 0 24 24">
    <path d="M12 20h9" stroke="currentColor" stroke-width="2" stroke-linecap="round" fill="none"/>
    <path d="M16.5 3.5a2.1 2.1 0 013 3L8 18l-4 1 1-4 11.5-11.5z" stroke="currentColor" stroke-width="2" stroke-linejoin="round" fill="none"/>
  </symbol>
  <symbol id="ads" viewBox="0 0 24 24">
    <path d="M3 11v2a2 2 0 002 2h2l6 4V5L7 9H5a2 2 0 00-2 2z" stroke="currentColor" stroke-width="2" stroke-linejoin="round" fill="none"/>
    <path d="M16 9a4 4 0 010 6" stroke="currentColor" stroke-width="2" stroke-linecap="round" fill="none"/>
  </symbol>
  <symbol id="book" viewBox="0 0 24 24">
    <path d="M4 5a2 2 0 012-2h14v18H6a2 2 0 00-2 2V5z" stroke="currentColor" stroke-width="2" fill="none"/>
    <path d="M6 3v18" stroke="currentColor" stroke-width="2" fill="none"/>
  </symbol>
  <symbol id="plugin" viewBox="0 0 24 24">
    <path d="M9 3v4a2 2 0 01-2 2H3v6h4a2 2 0 012 2v4h6v-4a2 2 0 012-2h4V9h-4a2 2 0 01-2-2V3z" stroke="currentColor" stroke-width="2" stroke-linejoin="round" fill="none"/>
  </symbol>
  <symbol id="election" viewBox="0 0 24 24">
    <rect x="3" y="10" width="18" height="11" rx="2" stroke="currentColor" stroke-width="2" fill="none"/>
    <path d="M8 10V7h8v3" stroke="currentColor" stroke-width="2" stroke-linecap="round" fill="none"/>
    <path d="M12 3l3 3-6 6-3-3 6-6z" stroke="currentColor" stroke-width="2" stroke-linejoin="round" fill="none"/>
  </symbol>

</svg>
