<?xml version="1.0" encoding="UTF-8"?>
<!--
  Godyar Icons Sprite
  Purpose: lightweight SVG symbol sprite to satisfy <use href="/assets/icons/godyar-icons.svg#...">
  Notes:
  - Uses simple, neutral glyphs (letters) to avoid trademark artwork issues.
  - You can replace symbols later with your own SVG paths while keeping the same IDs.
-->
<svg xmlns="http://www.w3.org/2000/svg" style="display:none">
  <defs>
    <!-- Generic helpers -->
    <symbol id="icon-circle" viewBox="0 0 24 24">
      <circle cx="12" cy="12" r="10" fill="currentColor"/>
    </symbol>

    <!-- Social / common icons (placeholders) -->
    <symbol id="facebook" viewBox="0 0 24 24">
      <circle cx="12" cy="12" r="10" fill="currentColor"/>
      <path d="M13.2 7.2h1.9V5h-2.3c-2.2 0-3.6 1.4-3.6 3.6V10H7.5v2.2h1.7V19h2.3v-6.8h2l.4-2.2h-2.4V8.8c0-.9.5-1.6 1.7-1.6Z" fill="#fff"/>
    </symbol>

    <symbol id="x" viewBox="0 0 24 24">
      <circle cx="12" cy="12" r="10" fill="currentColor"/>
      <path d="M8 17.5 10.9 13 8.2 6.5h2.2l1.6 4 2.6-4h2.2l-3.7 5.6 3.7 5.4h-2.2l-2.2-3.4-2.1 3.4H8Z" fill="#fff"/>
    </symbol>
    <symbol id="twitter" viewBox="0 0 24 24">
      <!-- alias to x -->
      <use href="#x"/>
    </symbol>

    <symbol id="instagram" viewBox="0 0 24 24">
      <circle cx="12" cy="12" r="10" fill="currentColor"/>
      <rect x="7.5" y="7.5" width="9" height="9" rx="2.2" fill="none" stroke="#fff" stroke-width="1.8"/>
      <circle cx="12" cy="12" r="2.2" fill="none" stroke="#fff" stroke-width="1.8"/>
      <circle cx="15.1" cy="8.9" r="0.9" fill="#fff"/>
    </symbol>

    <symbol id="youtube" viewBox="0 0 24 24">
      <circle cx="12" cy="12" r="10" fill="currentColor"/>
      <path d="M9.5 9.4v5.2l5-2.6-5-2.6Z" fill="#fff"/>
      <rect x="7.6" y="8.7" width="8.8" height="6.6" rx="2" fill="none" stroke="#fff" stroke-width="1.4"/>
    </symbol>

    <symbol id="telegram" viewBox="0 0 24 24">
      <circle cx="12" cy="12" r="10" fill="currentColor"/>
      <path d="M7.9 12.2 16.8 8.5c.4-.2.8.2.7.6l-1.6 7.9c-.1.5-.6.7-1 .4l-2.4-1.8-1.2 1.2c-.2.2-.6.2-.7-.1l-.8-2.7-1.9-.6c-.5-.2-.5-.9 0-1Z" fill="#fff"/>
    </symbol>

    <symbol id="whatsapp" viewBox="0 0 24 24">
      <circle cx="12" cy="12" r="10" fill="currentColor"/>
      <path d="M12 7.5a4.6 4.6 0 0 0-3.9 7l-.4 2.1 2.1-.4A4.6 4.6 0 1 0 12 7.5Z" fill="none" stroke="#fff" stroke-width="1.6" />
      <path d="M10.7 10.7c.2-.2.4-.2.6 0l.7.7c.2.2.2.5 0 .7l-.3.3c.4.7 1 1.2 1.7 1.6l.3-.3c.2-.2.5-.2.7 0l.7.7c.2.2.2.4 0 .6-.6.7-1.8.5-3-.2-1.2-.7-2.3-1.8-3-3-.7-1.2-.9-2.4-.2-3Z" fill="#fff"/>
    </symbol>

    <symbol id="tiktok" viewBox="0 0 24 24">
      <circle cx="12" cy="12" r="10" fill="currentColor"/>
      <path d="M13.4 7.2c.7 1.4 1.8 2.2 3.4 2.4v2c-1.4-.1-2.6-.6-3.4-1.4V14c0 1.9-1.5 3.4-3.4 3.4S6.6 15.9 6.6 14s1.5-3.4 3.4-3.4c.2 0 .4 0 .6.1v2.1c-.2-.1-.4-.1-.6-.1-.7 0-1.3.6-1.3 1.3s.6 1.3 1.3 1.3 1.3-.6 1.3-1.3V7.2h2.1Z" fill="#fff"/>
    </symbol>

    <symbol id="linkedin" viewBox="0 0 24 24">
      <circle cx="12" cy="12" r="10" fill="currentColor"/>
      <rect x="8.2" y="10.2" width="1.7" height="6" fill="#fff"/>
      <circle cx="9.05" cy="8.6" r="0.9" fill="#fff"/>
      <path d="M11 10.2h1.6v.9c.4-.7 1.1-1.1 2.1-1.1 1.6 0 2.5 1 2.5 2.8v3.4H15.6v-3c0-.9-.3-1.4-1.1-1.4-.7 0-1.1.5-1.1 1.4v3H11v-6Z" fill="#fff"/>
    </symbol>

    <!-- Generic UI icons used sometimes -->
    <symbol id="search" viewBox="0 0 24 24">
      <path d="M10.5 18a7.5 7.5 0 1 1 5.1-13 7.5 7.5 0 0 1-5.1 13Zm0-2a5.5 5.5 0 1 0 0-11 5.5 5.5 0 0 0 0 11Zm7.8 3.4-3.2-3.2 1.4-1.4 3.2 3.2-1.4 1.4Z" fill="currentColor"/>
    </symbol>

    <symbol id="menu" viewBox="0 0 24 24">
      <path d="M5 7h14v2H5V7Zm0 5h14v2H5v-2Zm0 5h14v2H5v-2Z" fill="currentColor"/>
    </symbol>

    <symbol id="close" viewBox="0 0 24 24">
      <path d="M6.4 5 5 6.4 10.6 12 5 17.6 6.4 19 12 13.4 17.6 19 19 17.6 13.4 12 19 6.4 17.6 5 12 10.6 6.4 5Z" fill="currentColor"/>
    </symbol>
  </defs>
</svg>
